<svg width="156" height="15" viewBox="0 0 156 15" fill="none" xmlns="http://www.w3.org/2000/svg">
<path d="M1 6.36426C0.447715 6.36426 0 6.81197 0 7.36426C0 7.91654 0.447715 8.36426 1 8.36426V7.36426V6.36426ZM155.707 8.07136C156.098 7.68084 156.098 7.04768 155.707 6.65715L149.343 0.29319C148.953 -0.0973344 148.319 -0.0973344 147.929 0.29319C147.538 0.683714 147.538 1.31688 147.929 1.7074L153.586 7.36426L147.929 13.0211C147.538 13.4116 147.538 14.0448 147.929 14.4353C148.319 14.8259 148.953 14.8259 149.343 14.4353L155.707 8.07136ZM1 7.36426V8.36426H155V7.36426V6.36426H1V7.36426Z" fill="#ECECEC"/>
</svg>
