<svg preserveAspectRatio="none" width="100%" height="100%" overflow="visible" style="display: block;" viewBox="0 0 50 51" fill="none" xmlns="http://www.w3.org/2000/svg">
<path id="Vector" d="M14.5 0H35.5C43.5 0 50 6.63 50 14.79V36.21C50 40.1326 48.4723 43.8944 45.753 46.6681C43.0338 49.4418 39.3456 51 35.5 51H14.5C6.5 51 0 44.37 0 36.21V14.79C0 10.8674 1.52767 7.10555 4.24695 4.33189C6.96623 1.55823 10.6544 0 14.5 0ZM14 5.1C11.6131 5.1 9.32387 6.06718 7.63604 7.78876C5.94821 9.51034 5 11.8453 5 14.28V36.72C5 41.7945 9.025 45.9 14 45.9H36C38.3869 45.9 40.6761 44.9328 42.364 43.2112C44.0518 41.4897 45 39.1547 45 36.72V14.28C45 9.2055 40.975 5.1 36 5.1H14ZM38.125 8.925C38.9538 8.925 39.7487 9.26082 40.3347 9.8586C40.9208 10.4564 41.25 11.2671 41.25 12.1125C41.25 12.9579 40.9208 13.7686 40.3347 14.3664C39.7487 14.9642 38.9538 15.3 38.125 15.3C37.2962 15.3 36.5013 14.9642 35.9153 14.3664C35.3292 13.7686 35 12.9579 35 12.1125C35 11.2671 35.3292 10.4564 35.9153 9.8586C36.5013 9.26082 37.2962 8.925 38.125 8.925ZM25 12.75C28.3152 12.75 31.4946 14.0933 33.8388 16.4844C36.183 18.8755 37.5 22.1185 37.5 25.5C37.5 28.8815 36.183 32.1245 33.8388 34.5156C31.4946 36.9067 28.3152 38.25 25 38.25C21.6848 38.25 18.5054 36.9067 16.1612 34.5156C13.817 32.1245 12.5 28.8815 12.5 25.5C12.5 22.1185 13.817 18.8755 16.1612 16.4844C18.5054 14.0933 21.6848 12.75 25 12.75ZM25 17.85C23.0109 17.85 21.1032 18.656 19.6967 20.0906C18.2902 21.5253 17.5 23.4711 17.5 25.5C17.5 27.5289 18.2902 29.4747 19.6967 30.9094C21.1032 32.344 23.0109 33.15 25 33.15C26.9891 33.15 28.8968 32.344 30.3033 30.9094C31.7098 29.4747 32.5 27.5289 32.5 25.5C32.5 23.4711 31.7098 21.5253 30.3033 20.0906C28.8968 18.656 26.9891 17.85 25 17.85Z" fill="var(--fill-0, #ECECEC)"/>
</svg>
