<svg width="8" height="19" viewBox="0 0 8 19" fill="none" xmlns="http://www.w3.org/2000/svg">
<path d="M4.17969 0.5C4.17969 0.223858 3.95583 1.20705e-08 3.67969 0C3.40355 -1.20705e-08 3.17969 0.223858 3.17969 0.5L3.67969 0.5L4.17969 0.5ZM3.32613 18.8536C3.5214 19.0488 3.83798 19.0488 4.03324 18.8536L7.21522 15.6716C7.41048 15.4763 7.41048 15.1597 7.21522 14.9645C7.01996 14.7692 6.70338 14.7692 6.50811 14.9645L3.67969 17.7929L0.85126 14.9645C0.655998 14.7692 0.339415 14.7692 0.144153 14.9645C-0.0511092 15.1597 -0.0511093 15.4763 0.144153 15.6716L3.32613 18.8536ZM3.67969 0.5L3.17969 0.5L3.17969 18.5L3.67969 18.5L4.17969 18.5L4.17969 0.5L3.67969 0.5Z" fill="white"/>
</svg>
