<svg width="20" height="19" viewBox="0 0 20 19" fill="none" xmlns="http://www.w3.org/2000/svg">
<path d="M19 9.287H8M3.639 9.287H0.5M3.639 9.287C3.639 8.70883 3.86868 8.15434 4.27751 7.74551C4.68634 7.33668 5.24083 7.107 5.819 7.107C6.39717 7.107 6.95166 7.33668 7.36049 7.74551C7.76932 8.15434 7.999 8.70883 7.999 9.287C7.999 9.86517 7.76932 10.4197 7.36049 10.8285C6.95166 11.2373 6.39717 11.467 5.819 11.467C5.24083 11.467 4.68634 11.2373 4.27751 10.8285C3.86868 10.4197 3.639 9.86517 3.639 9.287ZM19 15.894L16.861 15.896M16.861 15.896C16.861 16.4743 16.6308 17.0294 16.2218 17.4383C15.8129 17.8472 15.2583 18.077 14.68 18.077C14.1018 18.077 13.5473 17.8463 13.1385 17.4374C12.7297 17.0286 12.5 16.4741 12.5 15.896M16.861 15.896C16.861 15.3176 16.6308 14.7635 16.2218 14.3546C15.8129 13.9457 15.2583 13.716 14.68 13.716C14.1018 13.716 13.5473 13.9456 13.1385 14.3545C12.7297 14.7633 12.5 15.3178 12.5 15.896M12.5 15.896L0.5 15.894M19 2.68H13.5M9.139 2.68H0.5M9.139 2.68C9.139 2.10183 9.36868 1.54734 9.77751 1.13851C10.1863 0.729678 10.7408 0.5 11.319 0.5C11.6053 0.5 11.8888 0.556387 12.1532 0.665943C12.4177 0.775498 12.6581 0.936075 12.8605 1.13851C13.0629 1.34094 13.2235 1.58126 13.3331 1.84575C13.4426 2.11024 13.499 2.39372 13.499 2.68C13.499 2.96628 13.4426 3.24976 13.3331 3.51425C13.2235 3.77874 13.0629 4.01906 12.8605 4.22149C12.6581 4.42392 12.4177 4.5845 12.1532 4.69406C11.8888 4.80361 11.6053 4.86 11.319 4.86C10.7408 4.86 10.1863 4.63032 9.77751 4.22149C9.36868 3.81266 9.139 3.25817 9.139 2.68Z" stroke="#ECECEC" stroke-miterlimit="10" stroke-linecap="round"/>
</svg>
