<svg width="17" height="17" viewBox="0 0 17 17" fill="none" xmlns="http://www.w3.org/2000/svg">
<path d="M15.5835 11.9844V14.1094C15.5843 14.3067 15.5439 14.502 15.4649 14.6827C15.3858 14.8635 15.2699 15.0257 15.1246 15.1591C14.9792 15.2924 14.8076 15.394 14.6207 15.4572C14.4338 15.5204 14.2358 15.5438 14.0393 15.5261C11.8597 15.2892 9.76597 14.5444 7.92643 13.3515C6.21497 12.264 4.76396 10.813 3.67643 9.1015C2.47933 7.2536 1.73435 5.14971 1.50184 2.96025C1.48414 2.76437 1.50742 2.56696 1.5702 2.38057C1.63297 2.19418 1.73387 2.02291 1.86647 1.87765C1.99907 1.73239 2.16045 1.61634 2.34036 1.53687C2.52027 1.4574 2.71475 1.41627 2.91143 1.41608H5.03643C5.38019 1.4127 5.71345 1.53443 5.97409 1.75859C6.23474 1.98274 6.40498 2.29403 6.45309 2.63442C6.54278 3.31446 6.70912 3.98218 6.94893 4.62483C7.04423 4.87836 7.06485 5.1539 7.00836 5.41879C6.95187 5.68368 6.82062 5.92683 6.63018 6.11942L5.73059 7.019C6.73894 8.79235 8.20725 10.2606 9.98059 11.269L10.8802 10.3694C11.0728 10.179 11.3159 10.0477 11.5808 9.99123C11.8457 9.93474 12.1212 9.95537 12.3748 10.0507C13.0174 10.2905 13.6851 10.4568 14.3652 10.5465C14.7093 10.595 15.0235 10.7684 15.2481 11.0335C15.4728 11.2986 15.5921 11.637 15.5835 11.9844Z" stroke="#ECECEC" stroke-width="1.41667" stroke-linecap="round" stroke-linejoin="round"/>
</svg>
