<svg width="8" height="19" viewBox="0 0 8 19" fill="none" xmlns="http://www.w3.org/2000/svg">
<path d="M4.17969 18.5C4.17969 18.7761 3.95583 19 3.67969 19C3.40355 19 3.17969 18.7761 3.17969 18.5L3.67969 18.5L4.17969 18.5ZM3.32613 0.146446C3.5214 -0.0488148 3.83798 -0.0488148 4.03324 0.146446L7.21522 3.32843C7.41048 3.52369 7.41048 3.84027 7.21522 4.03553C7.01996 4.2308 6.70338 4.2308 6.50811 4.03553L3.67969 1.20711L0.85126 4.03553C0.655998 4.2308 0.339415 4.2308 0.144153 4.03553C-0.0511092 3.84027 -0.0511093 3.52369 0.144153 3.32843L3.32613 0.146446ZM3.67969 18.5L3.17969 18.5L3.17969 0.5L3.67969 0.5L4.17969 0.5L4.17969 18.5L3.67969 18.5Z" fill="white"/>
</svg>
